# Blender 5.1.1
# www.blender.org
mtllib triangle_90.mtl
o triangle_90
v 0.000000 0.026054 0.000000
v 0.000000 -0.026054 0.000000
v 0.997818 -0.026054 0.000000
v 0.000000 -0.026053 -0.997818
v 0.997818 0.026054 0.000000
v 0.000000 0.026054 -0.997818
vn -1.0000 -0.0000 -0.0000
vn -0.0000 1.0000 -0.0000
vn -0.0000 -0.0000 1.0000
vn 0.7071 -0.0000 -0.7071
vn -0.0000 -1.0000 -0.0000
vt 0.375000 0.000000
vt 0.375000 0.249455
vt 0.625000 0.249455
vt 0.625000 0.000000
vt 0.125000 0.500545
vt 0.125000 0.750000
vt 0.374455 0.750000
vt 0.375000 0.750545
vt 0.375000 1.000000
vt 0.625000 1.000000
vt 0.625000 0.750545
vt 0.000000 0.000000
vt 0.625545 0.750000
vt 0.875000 0.750000
vt 0.875000 0.500545
s 1
f 1/1/1 6/2/1 4/3/1 2/4/1
f 6/5/2 1/6/2 5/7/2
f 5/8/3 1/9/3 2/10/3 3/11/3
f 6/12/4 5/12/4 3/12/4 4/12/4
f 3/13/5 2/14/5 4/15/5
